<svg xmlns="http://www.w3.org/2000/svg" xmlns:xlink="http://www.w3.org/1999/xlink" width="56.169" height="27" viewBox="0 0 56.169 27">
  <defs>
    <clipPath id="clip-path">
      <rect id="Rectangle_18573" data-name="Rectangle 18573" width="56.169" height="27" fill="none"/>
    </clipPath>
  </defs>
  <g id="Group_76374" data-name="Group 76374" clip-path="url(#clip-path)">
    <path id="Path_52926" data-name="Path 52926" d="M4.651,0h46.7a5.609,5.609,0,0,1,3.286,1A3.026,3.026,0,0,1,56,3.406V23.593A3.026,3.026,0,0,1,54.638,26a5.609,5.609,0,0,1-3.286,1H4.651a5.607,5.607,0,0,1-3.286-1A3.025,3.025,0,0,1,0,23.593V3.406A3.025,3.025,0,0,1,1.365,1,5.607,5.607,0,0,1,4.651,0m46.7,1.893H4.651a2.487,2.487,0,0,0-1.458.445,1.34,1.34,0,0,0-.608,1.068V23.593a1.34,1.34,0,0,0,.608,1.068,2.487,2.487,0,0,0,1.458.445h46.7a2.483,2.483,0,0,0,1.457-.445,1.339,1.339,0,0,0,.609-1.068V3.406a1.339,1.339,0,0,0-.609-1.068,2.483,2.483,0,0,0-1.457-.445" transform="translate(0 0)" fill="#fff" fill-rule="evenodd"/>
    <path id="Path_52927" data-name="Path 52927" d="M54.123,7.269V12.25H.4V6.637H54.123Z" transform="translate(-0.086 -1.341)" fill="#fff"/>
    <g id="Group_76372" data-name="Group 76372">
      <path id="Path_52928" data-name="Path 52928" d="M22.838,22.057H26.8a.949.949,0,0,1,0,1.893H22.838a.949.949,0,0,1,0-1.893m6.895,0h3.959a.949.949,0,0,1,0,1.893H29.733a.95.95,0,0,1,0-1.893m6.9,0h3.958a.949.949,0,0,1,0,1.893H36.63a.949.949,0,0,1,0-1.893" transform="translate(-4.798 -4.456)" fill="#fff" fill-rule="evenodd"/>
    </g>
    <path id="Path_52929" data-name="Path 52929" d="M7.818,18.5a3.622,3.622,0,0,1,1.28.233l.106.041a4.283,4.283,0,0,0-.435.389,4.482,4.482,0,0,0,0,6.246A4.283,4.283,0,0,0,9.2,25.8c-.035.014-.07.028-.106.041a3.644,3.644,0,0,1-3.9-.875,3.843,3.843,0,0,1,0-5.354A3.659,3.659,0,0,1,7.818,18.5" transform="translate(-0.898 -3.737)" fill="#fff"/>
    <path id="Path_52930" data-name="Path 52930" d="M10.326,19.607a3.653,3.653,0,0,1,5.243,0,3.841,3.841,0,0,1,0,5.354,3.653,3.653,0,0,1-5.243,0,3.841,3.841,0,0,1,0-5.354" transform="translate(-2.019 -3.737)" fill="#fff"/>
    <g id="Group_76373" data-name="Group 76373">
      <path id="Path_52931" data-name="Path 52931" d="M22.838,22.057H26.8a.949.949,0,0,1,0,1.893H22.838a.949.949,0,0,1,0-1.893m6.895,0h3.959a.949.949,0,0,1,0,1.893H29.733a.95.95,0,0,1,0-1.893m6.9,0h3.958a.949.949,0,0,1,0,1.893H36.63a.949.949,0,0,1,0-1.893" transform="translate(-4.798 -4.456)" fill="#fff" fill-rule="evenodd"/>
    </g>
  </g>
</svg>
