<svg xmlns="http://www.w3.org/2000/svg" xmlns:xlink="http://www.w3.org/1999/xlink" width="28.392" height="27.25" viewBox="0 0 28.392 27.25">
  <defs>
    <clipPath id="clip-path">
      <rect id="Rectangle_18358" data-name="Rectangle 18358" width="28.391" height="27.25" fill="#fff"/>
    </clipPath>
  </defs>
  <g id="Group_75964" data-name="Group 75964" transform="translate(0 0)">
    <g id="Group_75963" data-name="Group 75963" transform="translate(0 -0.001)" clip-path="url(#clip-path)">
      <path id="Path_51907" data-name="Path 51907" d="M0,29.394V11.1A1.7,1.7,0,0,1,1.955,9.763H24.961a1.609,1.609,0,0,1,1.787,1.778q0,1.926,0,3.853c0,.1-.008.194-.014.309H26.4q-4.5,0-9.008,0a2.708,2.708,0,0,0-2.807,2.736c-.018,1.192-.025,2.384.01,3.575a2.808,2.808,0,0,0,.276,1.114,2.639,2.639,0,0,0,2.548,1.541q4.49.009,8.981,0h.324a1.279,1.279,0,0,1,.02.143c0,1.423.017,2.846,0,4.268a1.581,1.581,0,0,1-1.714,1.63q-11.655,0-23.31-.009a2.325,2.325,0,0,1-.948-.244A1.625,1.625,0,0,1,0,29.394" transform="translate(0 -3.466)" fill="#fff"/>
      <path id="Path_51908" data-name="Path 51908" d="M30.686,27.432c-1.488,0-2.977-.027-4.464.008a1.71,1.71,0,0,1-1.9-1.888c.039-1.034.007-2.07.009-3.1a1.623,1.623,0,0,1,1.766-1.757q4.589,0,9.177,0a1.615,1.615,0,0,1,1.752,1.741q0,1.621,0,3.244a1.618,1.618,0,0,1-1.763,1.756c-1.525,0-3.049,0-4.574,0M28.218,23.06a.96.96,0,0,0-.942.34,1.946,1.946,0,0,0-.019,1.414c.254.5,1.633.5,1.863.005a1.6,1.6,0,0,0,.03-1.335c-.167-.4-.544-.456-.931-.424" transform="translate(-8.634 -7.345)" fill="#fff"/>
      <path id="Path_51909" data-name="Path 51909" d="M29.226,6.377H16.138a2.351,2.351,0,0,1,.224-.092q5.151-1.409,10.3-2.814a1.592,1.592,0,0,1,2.09,1.186c.161.565.311,1.134.471,1.72" transform="translate(-5.73 -1.204)" fill="#fff"/>
      <path id="Path_51910" data-name="Path 51910" d="M20.817,2.088c-.9.246-1.749.481-2.6.713-2.8.764-5.6,1.545-8.412,2.278a9.738,9.738,0,0,1-1.712.144l-.017-.092c.076-.041.15-.085.228-.124q4.81-2.385,9.621-4.768a1.613,1.613,0,0,1,2.373.8c.168.338.335.677.521,1.052" transform="translate(-2.867 0)" fill="#fff"/>
    </g>
  </g>
</svg>
