<svg xmlns="http://www.w3.org/2000/svg" width="56" height="27" viewBox="0 0 56 27">
  <g id="Apple_Pay" data-name="Apple Pay" transform="translate(-6112.109 1461.885)">
    <rect id="Rectangle_18562" data-name="Rectangle 18562" width="56" height="27" rx="5" transform="translate(6112.109 -1461.885)" fill="#fff"/>
    <g id="apple-pay" transform="translate(6123.419 -1455.543)">
      <g id="Group_76325" data-name="Group 76325" transform="translate(0 0)">
        <g id="Group_76323" data-name="Group 76323" transform="translate(0 0)">
          <path id="Path_52904" data-name="Path 52904" d="M72.243,149.25a2.59,2.59,0,0,0,.6-1.846,2.568,2.568,0,0,0-1.7.881,2.424,2.424,0,0,0-.61,1.775,2.143,2.143,0,0,0,1.717-.809" transform="translate(-65.865 -147.404)"/>
          <path id="Path_52905" data-name="Path 52905" d="M6.967,189.572c-.948-.056-1.754.538-2.207.538s-1.147-.51-1.9-.5a2.8,2.8,0,0,0-2.377,1.444c-1.019,1.756-.269,4.361.722,5.791.481.708,1.061,1.487,1.825,1.459.722-.028,1-.467,1.882-.467s1.132.467,1.9.453c.793-.014,1.288-.708,1.769-1.416a6.283,6.283,0,0,0,.792-1.628,2.572,2.572,0,0,1-1.542-2.336,2.621,2.621,0,0,1,1.245-2.195,2.711,2.711,0,0,0-2.109-1.146" transform="translate(0 -186.789)"/>
        </g>
        <g id="Group_76324" data-name="Group 76324" transform="translate(11.241 0.81)">
          <path id="Path_52906" data-name="Path 52906" d="M174.518,159.688a3.332,3.332,0,0,1,3.5,3.489,3.37,3.37,0,0,1-3.548,3.5h-2.282v3.629h-1.649V159.688Zm-2.334,5.609h1.892a2.113,2.113,0,1,0,.007-4.218h-1.9Z" transform="translate(-170.536 -159.688)"/>
          <path id="Path_52907" data-name="Path 52907" d="M290.52,206.912c0-1.354,1.038-2.186,2.878-2.289l2.12-.125v-.6c0-.861-.582-1.376-1.553-1.376a1.483,1.483,0,0,0-1.634,1.134h-1.5c.088-1.4,1.281-2.429,3.195-2.429,1.877,0,3.077.994,3.077,2.547v5.337h-1.524v-1.273h-.037a2.767,2.767,0,0,1-2.444,1.406A2.347,2.347,0,0,1,290.52,206.912Zm5-.7V205.6l-1.906.118c-.95.066-1.487.486-1.487,1.148s.559,1.119,1.413,1.119A1.856,1.856,0,0,0,295.518,206.212Z" transform="translate(-282.611 -198.491)"/>
          <path id="Path_52908" data-name="Path 52908" d="M401.324,213.942v-1.288a2.94,2.94,0,0,0,.515.029,1.29,1.29,0,0,0,1.376-1.1c0-.015.14-.471.14-.478l-2.8-7.751h1.722l1.958,6.3h.029l1.958-6.3H407.9L405,211.5c-.662,1.877-1.428,2.481-3.032,2.481A6.145,6.145,0,0,1,401.324,213.942Z" transform="translate(-385.395 -200.472)"/>
        </g>
      </g>
    </g>
  </g>
</svg>
