<svg xmlns="http://www.w3.org/2000/svg" xmlns:xlink="http://www.w3.org/1999/xlink" width="141.054" height="141.113" viewBox="0 0 141.054 141.113">
  <defs>
    <linearGradient id="linear-gradient" x1="0.108" y1="0.19" x2="0.892" y2="0.81" gradientUnits="objectBoundingBox">
      <stop offset="0" stop-color="#fff"/>
      <stop offset="1" stop-color="#fff"/>
    </linearGradient>
  </defs>
  <g id="Group_76008" data-name="Group 76008" transform="translate(-2613.327 -1655.586)">
    <g id="Group_74898" data-name="Group 74898" transform="translate(2613.34 1655.59)">
      <path id="Path_48270" data-name="Path 48270" d="M2710.84,1707.09a68.739,68.739,0,0,0-3.184-11.742,70.374,70.374,0,0,0-11.822-20.6c-1.088-1.308-2.238-2.617-3.42-3.846s-2.411-2.443-3.688-3.594a1.038,1.038,0,0,0-1.387,1.545c1.229,1.119,2.428,2.285,3.578,3.483s2.254,2.459,3.31,3.735a69.283,69.283,0,0,1,6.557,9.457,70.334,70.334,0,0,1,4.918,10.529,68.038,68.038,0,0,1,3.089,11.4,68.864,68.864,0,0,1,1.072,12.09,1.04,1.04,0,1,0,2.081,0,71.428,71.428,0,0,0-1.1-12.452Z" transform="translate(-2570.902 -1648.992)" fill="#fff"/>
      <path id="Path_48271" data-name="Path 48271" d="M2714.47,1721.05a62.519,62.519,0,0,0-1.182-11,61.641,61.641,0,0,0-7.755-19.876,62.881,62.881,0,0,0-6.209-8.512c-1.024-1.166-2.1-2.317-3.2-3.42-1.1-1.088-2.27-2.159-3.452-3.168s-2.428-1.986-3.689-2.9-2.569-1.8-3.909-2.617c-1.025-.63-2.1-1.245-3.153-1.828-1.072-.583-2.175-1.135-3.263-1.639-1.1-.52-2.238-1.009-3.373-1.45-1.135-.457-2.317-.867-3.483-1.245h0c-.977-.315-1.986-.615-2.979-.883a1.044,1.044,0,1,0-.536,2.018c.962.268,1.924.552,2.869.851h0c1.119.362,2.254.772,3.357,1.214,1.1.426,2.191.9,3.263,1.4,1.056.489,2.128,1.025,3.152,1.592,1.024.552,2.049,1.151,3.058,1.765,1.277.788,2.553,1.639,3.767,2.538,1.214.883,2.412,1.828,3.562,2.806s2.27,2,3.342,3.058,2.112,2.175,3.09,3.31c.835.962,1.639,1.955,2.411,2.963a61.712,61.712,0,0,1,3.594,5.249,60.926,60.926,0,0,1,3.562,6.825q.52,1.182.993,2.364a59.611,59.611,0,0,1,2.932,9.993c.126.646.252,1.308.362,1.97a63.24,63.24,0,0,1,.757,7.314c.016.441.031.9.031,1.34h0v2.222h0c-.031,3.688-.2,7.424-.52,11.065-.315,3.61-.788,7.251-1.387,10.829-.6,3.531-1.339,7.077-2.206,10.545-.867,3.436-1.86,6.888-2.994,10.245a1.04,1.04,0,0,0,.662,1.324,1.2,1.2,0,0,0,.331.047,1.045,1.045,0,0,0,.993-.709c1.135-3.4,2.16-6.9,3.042-10.4.883-3.515,1.639-7.124,2.238-10.718.615-3.625,1.087-7.329,1.4-10.986.236-2.79.41-5.611.489-8.417.031-.946.047-1.875.047-2.821h0v-2.285h0Z" transform="translate(-2582.129 -1651.628)" fill="#fff"/>
      <path id="Path_48272" data-name="Path 48272" d="M2699.63,1723.81c.095-1.466.158-2.932.2-4.4.016-.851.031-1.687.047-2.522h0V1714.6a54.47,54.47,0,0,0-1.151-9.867,52.616,52.616,0,0,0-7.267-17.669,54.211,54.211,0,0,0-5.8-7.471h0c-.962-1.025-1.97-2.033-2.994-2.979-1.04-.946-2.112-1.876-3.231-2.743a1.044,1.044,0,1,0-1.292,1.639c1.072.835,2.112,1.718,3.1,2.632s1.97,1.876,2.884,2.869h0a52.041,52.041,0,0,1,5.58,7.172,51.452,51.452,0,0,1,4.24,8.1,50.842,50.842,0,0,1,3.83,18.347v2.238h0c-.031,3.31-.189,6.652-.457,9.946-.268,3.247-.678,6.526-1.2,9.725-.52,3.168-1.15,6.368-1.907,9.489-.741,3.089-1.608,6.21-2.585,9.237h0c-.489,1.529-1.009,3.058-1.561,4.555-.536,1.5-1.119,2.995-1.718,4.476s-1.23,2.948-1.876,4.4-1.34,2.9-2.033,4.3a1.051,1.051,0,0,0,.473,1.4.934.934,0,0,0,.457.11,1.043,1.043,0,0,0,.93-.583c.709-1.435,1.4-2.916,2.065-4.382s1.308-2.963,1.907-4.46c.614-1.5,1.2-3.042,1.75-4.555s1.087-3.074,1.576-4.619h0c.993-3.073,1.875-6.241,2.632-9.378.756-3.184,1.418-6.415,1.938-9.646.521-3.262.93-6.589,1.214-9.883.095-1.056.158-2.112.22-3.168Z" transform="translate(-2576.227 -1645.184)" fill="#fff"/>
      <path id="Path_48273" data-name="Path 48273" d="M2688.6,1726.55c.835-2.743,1.576-5.548,2.222-8.354a1.042,1.042,0,1,0-2.033-.457c-.631,2.743-1.356,5.5-2.175,8.212-.426,1.387-.867,2.774-1.34,4.146-.473,1.355-.962,2.727-1.482,4.082-.52,1.34-1.072,2.7-1.624,4-.568,1.324-1.151,2.648-1.766,3.941-.536,1.135-1.087,2.27-1.655,3.373s-1.151,2.222-1.75,3.31-1.214,2.175-1.844,3.247-1.292,2.144-1.939,3.184a1.029,1.029,0,0,0,.331,1.434,1.017,1.017,0,0,0,.552.158,1.05,1.05,0,0,0,.883-.489c.677-1.056,1.34-2.159,1.986-3.247s1.277-2.207,1.875-3.31c.615-1.1,1.214-2.238,1.781-3.373.567-1.119,1.135-2.27,1.686-3.42.615-1.308,1.229-2.664,1.8-4s1.135-2.711,1.655-4.082,1.041-2.758,1.513-4.145.93-2.806,1.372-4.209Z" transform="translate(-2578.931 -1620.248)" fill="#fff"/>
      <path id="Path_48274" data-name="Path 48274" d="M2712.96,1717.7v-2.238h0a44.833,44.833,0,0,0-1.088-8.716,43.184,43.184,0,0,0-2.7-8.1,44.1,44.1,0,0,0-4.129-7.329,45.354,45.354,0,0,0-5.391-6.384h0c-.9-.883-1.829-1.734-2.79-2.522s-1.97-1.576-3.01-2.285c-1.04-.725-2.112-1.4-3.2-2.033s-2.222-1.229-3.373-1.765c-.9-.41-1.812-.8-2.711-1.167-.915-.363-1.86-.693-2.806-.977-.946-.3-1.922-.567-2.884-.8-.977-.237-1.97-.441-2.963-.6h0c-.615-.095-1.213-.189-1.829-.268s-1.229-.142-1.844-.189-1.245-.095-1.875-.126c-.883-.032-1.766-.047-2.632-.032-.252,0-.489,0-.741.016-.252,0-.489.016-.725.032-.236,0-.489.032-.725.047h0c-.8.047-1.607.126-2.412.221-.788.095-1.592.221-2.364.347-.773.142-1.561.3-2.333.473s-1.529.378-2.285.6h0c-.726.2-1.466.441-2.175.694s-1.434.52-2.128.8-1.4.583-2.081.9-1.355.646-2.018,1.009h0q-.993.52-1.938,1.087c-.63.378-1.277.772-1.892,1.182s-1.229.836-1.812,1.277q-.9.662-1.75,1.371a1.041,1.041,0,1,0,1.324,1.608c.536-.442,1.1-.883,1.671-1.292.567-.426,1.151-.835,1.734-1.214.583-.394,1.2-.772,1.8-1.135s1.229-.709,1.86-1.04h0c.63-.331,1.277-.662,1.923-.961s1.308-.583,1.97-.867c.662-.268,1.34-.52,2.018-.757s1.387-.457,2.081-.662h0c.709-.2,1.45-.394,2.175-.567s1.481-.315,2.222-.457c.741-.126,1.513-.236,2.253-.331.757-.095,1.529-.158,2.3-.221h0c.236,0,.458-.032.694-.047.236,0,.473-.016.693-.031.236,0,.473,0,.694-.016.835,0,1.67,0,2.506.031.583.031,1.182.063,1.781.11.583.047,1.182.11,1.765.189s1.167.158,1.734.252h0c.946.157,1.891.347,2.821.583.914.221,1.844.473,2.758.756s1.8.6,2.68.946c.867.331,1.734.709,2.584,1.1,1.087.5,2.175,1.072,3.216,1.671s2.065,1.245,3.042,1.938c.977.678,1.938,1.419,2.869,2.175.915.756,1.813,1.576,2.664,2.411h0a42.436,42.436,0,0,1,11.632,20.806,43.115,43.115,0,0,1,1.04,8.291v2.207h0c-.032,2.932-.158,5.9-.394,8.8a1.041,1.041,0,0,0,.961,1.119h.079a1.046,1.046,0,0,0,1.041-.961c.173-2.223.3-4.461.362-6.7.016-.741.031-1.5.047-2.238h0Z" transform="translate(-2597.989 -1646.044)" fill="#fff"/>
      <path id="Path_48275" data-name="Path 48275" d="M2671.09,1738.85c.5-.851.992-1.718,1.481-2.585h0c.5-.9.993-1.812,1.466-2.727s.93-1.844,1.386-2.79c.442-.93.883-1.876,1.309-2.821a1.041,1.041,0,1,0-1.907-.836c-.41.93-.835,1.86-1.277,2.774s-.9,1.828-1.356,2.727-.946,1.8-1.434,2.679h0c-.473.851-.962,1.7-1.45,2.538s-1.009,1.671-1.513,2.49c-.52.82-1.04,1.64-1.576,2.443s-1.088,1.608-1.655,2.4c-.552.772-1.119,1.56-1.7,2.317s-1.166,1.513-1.766,2.27c-.583.741-1.2,1.481-1.812,2.223-.615.725-1.245,1.45-1.876,2.175a1.044,1.044,0,0,0,.079,1.466,1.062,1.062,0,0,0,.693.268,1.008,1.008,0,0,0,.772-.347c.646-.725,1.293-1.466,1.923-2.207s1.261-1.513,1.86-2.27q.922-1.159,1.8-2.317c.583-.772,1.166-1.576,1.734-2.364s1.135-1.624,1.687-2.443,1.087-1.655,1.608-2.49,1.04-1.686,1.544-2.538Z" transform="translate(-2588.101 -1614.752)" fill="#fff"/>
      <path id="Path_48276" data-name="Path 48276" d="M2680.28,1747.23c.536-1.2,1.04-2.412,1.529-3.625s.962-2.443,1.4-3.688.883-2.49,1.277-3.736c.409-1.261.788-2.538,1.151-3.8.677-2.4,1.292-4.839,1.812-7.266.521-2.443.977-4.949,1.34-7.44.362-2.506.646-5.06.835-7.6.142-1.923.252-3.862.3-5.8.016-.646.031-1.292.031-1.939h0v-2.364h0v-.221a1,1,0,0,0-.741-.772.219.219,0,0,1-.094-.032h-.4l-.19.063c-.031,0-.063.031-.1.047a.354.354,0,0,0-.079.047c-.031.016-.047.047-.079.063s-.047.047-.079.063c-.016.031-.047.047-.063.079s-.047.047-.063.079l-.048.095c0,.031-.031.063-.047.095a.223.223,0,0,1-.031.095.218.218,0,0,1-.031.094v2.538h0c-.032,2.522-.142,5.091-.331,7.6-.189,2.49-.473,5-.82,7.456s-.788,4.9-1.309,7.3c-.5,2.4-1.1,4.792-1.781,7.14-.347,1.245-.741,2.49-1.135,3.72-.394,1.214-.82,2.459-1.261,3.673s-.9,2.427-1.387,3.609-.977,2.38-1.5,3.562c-.457,1.04-.93,2.08-1.418,3.089s-.993,2.033-1.513,3.042-1.056,2-1.608,2.979c-.536.977-1.119,1.97-1.687,2.932-.552.914-1.119,1.844-1.687,2.727-.567.9-1.166,1.8-1.75,2.68-.6.883-1.214,1.765-1.828,2.632s-1.261,1.734-1.907,2.569a1.051,1.051,0,0,0,1.67,1.277c.646-.851,1.308-1.734,1.939-2.617s1.261-1.781,1.86-2.68,1.214-1.812,1.781-2.727c.583-.914,1.151-1.844,1.718-2.774.583-.993,1.166-1.986,1.719-2.979s1.1-2.017,1.639-3.042,1.04-2.065,1.544-3.089c.5-1.04.978-2.1,1.45-3.153Z" transform="translate(-2583.691 -1630.605)" fill="#fff"/>
      <path id="Path_48277" data-name="Path 48277" d="M2690.42,1673.21c-.961-.536-1.955-1.04-2.932-1.5-.993-.473-2.017-.914-3.042-1.324s-2.081-.788-3.136-1.135-2.144-.662-3.216-.946c-.914-.236-1.828-.441-2.758-.63s-1.876-.347-2.806-.489c-.946-.142-1.907-.252-2.853-.331-.961-.095-1.938-.158-2.9-.189h-.488c-.174-.016-.331-.031-.5-.031h-.5c-.867,0-1.75,0-2.616.031-.693.032-1.4.063-2.1.126-.694.047-1.387.126-2.081.2-.678.079-1.372.173-2.049.284h0c-.788.126-1.608.268-2.4.441-.788.158-1.576.347-2.364.536-.773.2-1.561.41-2.317.646s-1.529.489-2.27.741a1.039,1.039,0,0,0,.347,2.017.9.9,0,0,0,.347-.063c.709-.252,1.45-.489,2.191-.725.725-.221,1.482-.426,2.222-.615s1.513-.362,2.27-.52,1.545-.3,2.3-.426h0c.646-.11,1.309-.189,1.971-.268s1.324-.142,1.986-.2,1.34-.094,2.018-.126c.835-.032,1.687-.047,2.506-.032h1.419v.016c.93.032,1.86.094,2.79.173.914.079,1.844.189,2.743.331.9.126,1.813.284,2.7.473.883.173,1.781.378,2.648.615,1.024.268,2.065.567,3.089.9,1.009.331,2.018.693,3.01,1.088s1.954.82,2.916,1.277c.946.441,1.892.93,2.822,1.45a.962.962,0,0,0,.5.126,1.041,1.041,0,0,0,.5-1.954Z" transform="translate(-2594.289 -1649.222)" fill="#fff"/>
      <path id="Path_48278" data-name="Path 48278" d="M2685.58,1717.34c-.142,2.144-.362,4.3-.63,6.431-.268,2.112-.615,4.224-1.024,6.3s-.867,4.145-1.4,6.179h0c-.284,1.087-.6,2.207-.914,3.31a1.045,1.045,0,0,0,.709,1.292.989.989,0,0,0,.3.047,1.03,1.03,0,0,0,.993-.741c.331-1.119.646-2.254.93-3.373h0c.536-2.065,1.024-4.193,1.434-6.3.41-2.128.772-4.287,1.04-6.431.284-2.159.5-4.366.646-6.557.047-.631.079-1.261.11-1.907.047-1.024.094-2.065.11-3.089,0-.552.016-1.1.016-1.655v-1.151h0a26.911,26.911,0,0,0-3.263-12.326,27.313,27.313,0,0,0-3.594-5.107,27.689,27.689,0,0,0-4.65-4.145h0a25.664,25.664,0,0,0-2.411-1.513c-.836-.457-1.7-.883-2.569-1.261a27.958,27.958,0,0,0-2.711-.993,25.6,25.6,0,0,0-2.837-.693c-.41-.079-.82-.142-1.229-.2s-.836-.11-1.245-.142c-.426-.047-.851-.079-1.261-.094-.8-.031-1.624-.047-2.427,0-.379.016-.757.047-1.135.079s-.741.079-1.119.126-.74.095-1.1.158h0c-.756.126-1.513.284-2.254.473a1.04,1.04,0,0,0,.252,2.049.689.689,0,0,0,.252-.032c.677-.173,1.386-.331,2.081-.442h0c.331-.063.677-.11,1.024-.157s.693-.079,1.04-.11.693-.047,1.04-.063c.741-.032,1.5-.032,2.238,0,.394.016.788.047,1.167.079s.772.079,1.151.142q.568.071,1.135.189a24.376,24.376,0,0,1,2.616.646,23.927,23.927,0,0,1,2.506.914c.8.347,1.608.741,2.38,1.167a25.118,25.118,0,0,1,2.222,1.4h0a25,25,0,0,1,10.623,19.907v1.1h0c0,2.175-.094,4.382-.236,6.541Z" transform="translate(-2590.315 -1639.691)" fill="#fff"/>
      <path id="Path_48279" data-name="Path 48279" d="M2664,1743.63c.5-.725,1.009-1.481,1.5-2.238h0c.488-.741.961-1.513,1.434-2.27s.931-1.545,1.372-2.317c.442-.788.883-1.576,1.309-2.364s.835-1.592,1.245-2.4.819-1.655,1.2-2.49.772-1.686,1.135-2.522.725-1.7,1.072-2.569h0q.52-1.3.993-2.6a1.042,1.042,0,0,0-1.954-.725c-.315.851-.631,1.7-.977,2.538s-.678,1.686-1.04,2.506c-.347.82-.725,1.655-1.1,2.475s-.772,1.639-1.182,2.443c-.394.788-.8,1.576-1.214,2.349-.41.757-.836,1.545-1.277,2.3s-.883,1.529-1.34,2.27-.93,1.5-1.4,2.222h0c-.473.741-.962,1.466-1.466,2.191-.489.709-.993,1.434-1.513,2.144-.521.694-1.04,1.4-1.576,2.1s-1.087,1.371-1.639,2.049-1.119,1.355-1.7,2.017-1.167,1.324-1.765,1.97-1.2,1.292-1.813,1.923-1.229,1.261-1.859,1.876a1.048,1.048,0,0,0,.725,1.8,1,1,0,0,0,.725-.3c.646-.63,1.277-1.277,1.907-1.907.63-.646,1.245-1.308,1.844-1.97.615-.662,1.214-1.34,1.8-2.018s1.182-1.387,1.734-2.065c.568-.693,1.119-1.387,1.671-2.1s1.087-1.434,1.608-2.144,1.056-1.466,1.561-2.191Z" transform="translate(-2592.153 -1618.212)" fill="#fff"/>
      <path id="Path_48280" data-name="Path 48280" d="M2655.96,1752.34c.521-.63,1.056-1.292,1.561-1.939.5-.662,1.009-1.324,1.5-1.986h0c.473-.646.961-1.324,1.418-2,.473-.678.93-1.371,1.371-2.033.458-.693.9-1.387,1.309-2.08.426-.693.851-1.4,1.261-2.112s.8-1.419,1.182-2.128.756-1.434,1.119-2.159.725-1.466,1.072-2.207.693-1.5,1.009-2.238h0c.315-.741.646-1.5.946-2.254s.6-1.529.883-2.286.568-1.544.82-2.317c.268-.772.52-1.576.757-2.349h0c.252-.8.489-1.623.709-2.443.221-.8.442-1.639.646-2.474s.394-1.671.567-2.49c.174-.835.347-1.686.5-2.522h0c.236-1.245.441-2.522.614-3.8a1.043,1.043,0,1,0-2.065-.3c-.174,1.23-.378,2.49-.6,3.7h0c-.158.82-.315,1.655-.489,2.459s-.363,1.624-.552,2.443-.41,1.624-.631,2.412-.457,1.592-.693,2.38h0c-.236.757-.489,1.529-.741,2.285s-.52,1.513-.8,2.27c-.268.741-.567,1.5-.867,2.238s-.615,1.482-.93,2.207h0c-.315.725-.646,1.45-.977,2.175s-.694,1.45-1.041,2.144c-.362.709-.725,1.419-1.1,2.112s-.756,1.387-1.15,2.081-.82,1.387-1.23,2.065-.851,1.355-1.276,2.033c-.426.662-.883,1.324-1.34,1.986s-.93,1.324-1.387,1.954h0c-.473.646-.962,1.308-1.466,1.939-.489.631-1.009,1.277-1.513,1.891-.521.63-1.041,1.245-1.576,1.86s-1.072,1.214-1.624,1.813h0q-.851.922-1.7,1.8c-.568.583-1.166,1.166-1.75,1.75-.583.568-1.2,1.135-1.8,1.7s-1.229,1.119-1.844,1.639a1.031,1.031,0,0,0-.111,1.466,1.058,1.058,0,0,0,.788.362,1.006,1.006,0,0,0,.677-.252c.63-.552,1.277-1.119,1.892-1.687s1.245-1.151,1.844-1.734c.615-.583,1.214-1.2,1.8-1.781q.875-.9,1.75-1.844h0c.552-.615,1.119-1.23,1.655-1.86.536-.615,1.087-1.261,1.608-1.891Z" transform="translate(-2595.847 -1625.774)" fill="#fff"/>
      <path id="Path_48281" data-name="Path 48281" d="M2683.79,1712.87c-.11,1.734-.252,3.468-.457,5.17-.189,1.7-.441,3.4-.725,5.091-.284,1.671-.615,3.342-.993,5h0q-.331,1.442-.709,2.884a1.061,1.061,0,0,0,.741,1.277,1.57,1.57,0,0,0,.268.032,1.059,1.059,0,0,0,1.009-.772c.252-.977.5-1.97.725-2.947h0c.378-1.686.725-3.4,1.024-5.107s.552-3.468.741-5.2c.2-1.75.362-3.531.473-5.28.111-1.781.174-3.578.174-5.328h0v-1.19h0a18.911,18.911,0,0,0-.9-5.139,18.186,18.186,0,0,0-2.238-4.539,18.506,18.506,0,0,0-7.582-6.447h0a19.27,19.27,0,0,0-1.8-.709,18.53,18.53,0,0,0-1.891-.536c-.646-.142-1.308-.252-1.971-.331a19.475,19.475,0,0,0-2.538-.11c-.173,0-.346,0-.52.016-.174,0-.331.016-.5.031-.173,0-.33.032-.5.047h0a20.176,20.176,0,0,0-2.364.426,18.274,18.274,0,0,0-4.366,1.686,17.644,17.644,0,0,0-1.955,1.229h0a18.237,18.237,0,0,0-3.153,2.884,18.844,18.844,0,0,0-2.427,3.547,18.158,18.158,0,0,0-1.544,4.067,18.4,18.4,0,0,0-.552,4.366v.095c0,1.434-.047,2.884-.158,4.3-.094,1.4-.252,2.821-.457,4.208s-.442,2.774-.741,4.13c-.284,1.34-.63,2.7-1.009,4.019h0c-.22.757-.457,1.513-.709,2.254s-.5,1.481-.788,2.223c-.268.725-.568,1.466-.867,2.175s-.614,1.434-.946,2.128h0c-.315.662-.63,1.308-.962,1.955s-.677,1.292-1.024,1.923a1.036,1.036,0,0,0,.394,1.419.958.958,0,0,0,.5.126,1.04,1.04,0,0,0,.914-.536c.363-.646.725-1.308,1.072-1.986.347-.662.678-1.355.993-2.033h0c.347-.725.677-1.466.978-2.207s.614-1.5.9-2.254.567-1.529.819-2.3.5-1.545.726-2.333h0c.394-1.371.74-2.774,1.04-4.161s.552-2.837.756-4.271.363-2.9.473-4.366c.11-1.434.157-2.916.157-4.366v-.079a15.905,15.905,0,0,1,.489-3.956,16.68,16.68,0,0,1,1.372-3.61,16.255,16.255,0,0,1,2.144-3.136,16.573,16.573,0,0,1,2.805-2.554h0a15.245,15.245,0,0,1,1.734-1.088,15.635,15.635,0,0,1,1.875-.867,14.762,14.762,0,0,1,2-.631,15.817,15.817,0,0,1,2.1-.378h0c.142-.016.3-.031.457-.047a4.49,4.49,0,0,0,.458-.031,4.391,4.391,0,0,0,.457-.016,15.363,15.363,0,0,1,2.254.095,15.829,15.829,0,0,1,1.734.284,15.434,15.434,0,0,1,1.671.473c.536.189,1.072.394,1.592.63h0a16.644,16.644,0,0,1,3.767,2.412,16.433,16.433,0,0,1,2.963,3.31,15.464,15.464,0,0,1,1.97,4.035,15.879,15.879,0,0,1,.8,4.555v1.087h0c0,1.75-.063,3.515-.174,5.249Z" transform="translate(-2597.135 -1636.518)" fill="#fff"/>
      <path id="Path_48282" data-name="Path 48282" d="M2669.15,1708.22a1.03,1.03,0,0,0,.993,1.088h.047a1.04,1.04,0,0,0,1.04-.993c.031-.646.063-1.308.079-1.97v-.362c0-.536.016-1.056.032-1.592v-1.025h0a9.822,9.822,0,0,0-.9-3.609,9.733,9.733,0,0,0-8.812-5.58h-.552v.016h0a9.462,9.462,0,0,0-3.594.914,9.732,9.732,0,0,0-5.58,8.812,1.038,1.038,0,0,0,1.04,1.041,1.05,1.05,0,0,0,1.041-1.041,7.526,7.526,0,0,1,.566-2.884,7.647,7.647,0,0,1,1.545-2.38,7.848,7.848,0,0,1,2.285-1.655,7.3,7.3,0,0,1,2.822-.709h.425a7.529,7.529,0,0,1,2.885.567,7.647,7.647,0,0,1,2.38,1.545,7.738,7.738,0,0,1,1.655,2.3c.11.221.189.441.283.678.032.095.063.2.095.3.048.126.079.268.126.394.031.095.031.189.063.284a3.941,3.941,0,0,1,.078.426,1.734,1.734,0,0,0,.031.284c.016.142.032.3.047.441v.883c0,1.292-.047,2.585-.11,3.846Z" transform="translate(-2591.116 -1633.353)" fill="#fff"/>
      <path id="Path_48283" data-name="Path 48283" d="M2648.5,1755.83c.551-.567,1.087-1.151,1.607-1.718.521-.583,1.04-1.166,1.561-1.765s1.024-1.214,1.513-1.813h0c.473-.6.962-1.214,1.418-1.813.458-.615.931-1.229,1.372-1.86s.883-1.261,1.309-1.891.851-1.292,1.261-1.939h0q.614-.969,1.182-1.939c.378-.646.756-1.308,1.135-1.97.362-.662.725-1.34,1.072-2,.347-.678.693-1.356,1.024-2.034.315-.662.631-1.355.946-2.033s.6-1.371.883-2.065.568-1.387.82-2.1c.267-.693.52-1.4.772-2.112.236-.693.473-1.4.693-2.1s.441-1.418.646-2.128.394-1.434.583-2.144q.284-1.088.521-2.175h0c.158-.709.315-1.419.457-2.144.142-.709.268-1.434.394-2.159s.236-1.45.331-2.191c.095-.725.189-1.466.268-2.207h0c.079-.709.158-1.45.2-2.175.063-.725.11-1.466.158-2.191.048-.741.079-1.482.095-2.207s.032-1.481.032-2.222a1.04,1.04,0,0,0-2.08,0c0,.725,0,1.45-.032,2.16-.016.709-.047,1.419-.095,2.144-.047.709-.095,1.434-.142,2.128-.063.709-.126,1.419-.2,2.112h0c-.079.709-.173,1.434-.268,2.144s-.2,1.434-.331,2.128-.252,1.419-.378,2.112c-.142.709-.284,1.4-.441,2.1h0c-.158.693-.332,1.4-.5,2.112-.174.693-.363,1.4-.567,2.1-.189.678-.41,1.371-.615,2.065-.221.678-.441,1.371-.678,2.049-.236.693-.489,1.387-.757,2.065q-.378,1.017-.8,2.033c-.284.678-.567,1.356-.867,2-.3.662-.6,1.324-.914,1.97q-.473.993-.994,1.986c-.331.646-.693,1.308-1.04,1.954-.362.646-.725,1.292-1.1,1.923s-.756,1.261-1.151,1.891h0c-.394.631-.819,1.277-1.229,1.891s-.852,1.245-1.277,1.844-.882,1.214-1.339,1.813-.915,1.182-1.387,1.765h0c-.473.583-.961,1.182-1.466,1.765s-1.008,1.166-1.513,1.718c-.5.567-1.04,1.119-1.56,1.671s-1.072,1.1-1.608,1.624h0c-.552.552-1.135,1.087-1.7,1.624q-.876.8-1.75,1.56c-.583.5-1.2,1.025-1.8,1.513s-1.229.977-1.844,1.466a1.048,1.048,0,0,0,.63,1.876.962.962,0,0,0,.63-.221c.631-.489,1.277-.993,1.892-1.5s1.246-1.041,1.844-1.561,1.2-1.056,1.8-1.608c.583-.536,1.166-1.1,1.75-1.655h0c.552-.552,1.119-1.1,1.655-1.671Z" transform="translate(-2599.18 -1630.173)" fill="#fff"/>
      <path id="Path_48284" data-name="Path 48284" d="M2643.32,1749.18c.536-.52,1.072-1.056,1.608-1.592s1.056-1.1,1.561-1.655,1.009-1.119,1.5-1.7.962-1.135,1.418-1.718q.709-.875,1.371-1.75c.442-.583.883-1.2,1.309-1.8s.851-1.229,1.261-1.844h0c.41-.615.8-1.245,1.182-1.86s.757-1.261,1.135-1.891.725-1.277,1.072-1.923.693-1.308,1.009-1.97c.331-.646.646-1.324.946-1.986s.6-1.34.883-2.033c.283-.678.568-1.371.82-2.065.268-.693.52-1.387.757-2.1h0q.378-1.088.709-2.175c.236-.741.441-1.482.646-2.207s.394-1.482.583-2.238c.173-.741.347-1.5.5-2.254h0c.236-1.151.441-2.333.631-3.5.173-1.166.331-2.364.457-3.547a1.047,1.047,0,0,0-2.081-.221c-.11,1.151-.268,2.317-.441,3.452s-.378,2.27-.614,3.389h0c-.158.741-.315,1.466-.489,2.191s-.362,1.45-.568,2.16c-.189.709-.41,1.418-.631,2.144-.22.693-.457,1.4-.693,2.112h0c-.236.678-.489,1.356-.74,2.033-.252.662-.521,1.34-.8,2s-.568,1.324-.867,1.97-.6,1.292-.914,1.938c-.315.631-.646,1.277-.977,1.907s-.694,1.261-1.04,1.876c-.363.615-.725,1.229-1.1,1.844-.363.6-.757,1.2-1.151,1.8h0c-.394.6-.8,1.2-1.229,1.781-.41.583-.852,1.182-1.277,1.75s-.883,1.135-1.324,1.7-.915,1.119-1.387,1.655h0q-.709.827-1.466,1.655-.733.8-1.513,1.608c-.521.52-1.04,1.056-1.561,1.545s-1.072,1.009-1.608,1.5q-.828.75-1.7,1.482c-.567.489-1.166.961-1.75,1.434-.584.457-1.182.93-1.8,1.371s-1.23.9-1.844,1.308a1.04,1.04,0,0,0-.268,1.45,1.022,1.022,0,0,0,.851.457.993.993,0,0,0,.584-.189c.63-.442,1.276-.9,1.891-1.356s1.245-.93,1.844-1.419c.6-.473,1.214-.977,1.8-1.466s1.182-1.025,1.75-1.529c.552-.5,1.119-1.025,1.655-1.545Z" transform="translate(-2602.212 -1627.571)" fill="#fff"/>
      <path id="Path_48285" data-name="Path 48285" d="M2638.69,1731.86c.536-.489,1.087-1.009,1.608-1.529s1.056-1.04,1.56-1.576,1.009-1.088,1.5-1.639a1.039,1.039,0,0,0-1.561-1.371c-.473.536-.961,1.056-1.45,1.576s-.993,1.025-1.513,1.529-1.04.993-1.561,1.482c-.52.473-1.072.961-1.607,1.418-.552.473-1.119.93-1.687,1.387-.567.441-1.15.9-1.75,1.324-.583.426-1.2.851-1.8,1.261s-1.214.8-1.844,1.2a1.041,1.041,0,0,0,.552,1.923,1.015,1.015,0,0,0,.552-.158c.646-.394,1.277-.819,1.907-1.245.614-.426,1.245-.867,1.86-1.308s1.214-.914,1.8-1.371c.6-.473,1.182-.946,1.75-1.435.568-.473,1.12-.977,1.671-1.466Z" transform="translate(-2604.834 -1615.374)" fill="#fff"/>
      <path id="Path_48286" data-name="Path 48286" d="M2627.91,1749.29c.6-.441,1.182-.914,1.75-1.371h0c.583-.489,1.166-.993,1.718-1.5s1.1-1.04,1.639-1.592c.536-.536,1.056-1.1,1.56-1.671s.993-1.151,1.466-1.75h0c.521-.662,1.04-1.339,1.529-2.017s.962-1.387,1.418-2.112c.457-.709.883-1.45,1.292-2.191s.8-1.5,1.167-2.27h0a45.723,45.723,0,0,0,1.892-4.539,46.874,46.874,0,0,0,1.387-4.76,43.7,43.7,0,0,0,.852-4.965,45.082,45.082,0,0,0,.283-5.059v-.079a33.476,33.476,0,0,1,2.978-13.839,33.7,33.7,0,0,1,2.191-4.067c.426-.662.867-1.324,1.34-1.955.458-.63.962-1.261,1.466-1.86s1.04-1.182,1.592-1.75,1.119-1.119,1.7-1.639c.536-.473,1.072-.93,1.639-1.371s1.135-.867,1.719-1.261c.583-.41,1.182-.788,1.8-1.166.615-.362,1.245-.725,1.876-1.04h0c.615-.315,1.261-.63,1.891-.914.646-.284,1.308-.552,1.954-.788.662-.237,1.34-.473,2.018-.662s1.372-.378,2.081-.536h0c.6-.142,1.214-.252,1.812-.362.615-.11,1.229-.189,1.86-.268.63-.063,1.261-.126,1.891-.158q1.135-.071,2.27-.047h1.087c.851.031,1.7.11,2.554.2.835.095,1.671.237,2.49.394s1.624.347,2.427.567,1.592.473,2.364.741h0a31.441,31.441,0,0,1,2.917,1.2c.946.441,1.875.93,2.774,1.45a28.667,28.667,0,0,1,2.616,1.7c.835.6,1.671,1.245,2.443,1.923h0a33.934,33.934,0,0,1,4.681,4.949,33.172,33.172,0,0,1,3.61,5.816,1.043,1.043,0,0,0,.93.583.936.936,0,0,0,.457-.11,1.033,1.033,0,0,0,.473-1.387,35.817,35.817,0,0,0-8.8-11.427h0c-.836-.725-1.7-1.4-2.6-2.049a32.278,32.278,0,0,0-2.79-1.8c-.961-.552-1.954-1.072-2.947-1.545-1.009-.473-2.049-.9-3.1-1.277h0c-.82-.3-1.671-.552-2.507-.788s-1.718-.441-2.585-.6-1.765-.315-2.648-.41c-.9-.11-1.8-.173-2.711-.221h-1.135c-.8,0-1.608,0-2.412.047-.662.032-1.34.095-2,.173s-1.324.173-1.97.284-1.292.236-1.938.378h0c-.74.173-1.482.362-2.207.583s-1.434.457-2.144.709c-.694.252-1.4.536-2.081.836s-1.356.63-2.018.961h0c-.677.347-1.34.725-1.986,1.1-.646.394-1.293.8-1.907,1.23s-1.229.883-1.828,1.34c-.583.457-1.167.946-1.734,1.45-.615.552-1.229,1.135-1.813,1.734s-1.151,1.229-1.687,1.86-1.056,1.308-1.561,1.97c-.488.678-.977,1.371-1.418,2.081a35.51,35.51,0,0,0-5.47,18.93v.079a42.7,42.7,0,0,1-1.1,9.634,41.4,41.4,0,0,1-1.323,4.537,42.886,42.886,0,0,1-1.8,4.319h0c-.347.725-.725,1.45-1.119,2.16s-.8,1.4-1.23,2.08-.883,1.356-1.356,2c-.457.646-.946,1.292-1.45,1.923h0c-.457.568-.93,1.119-1.4,1.671-.489.536-.978,1.072-1.482,1.592s-1.04,1.025-1.561,1.513-1.087.977-1.639,1.434h0c-.536.441-1.1.883-1.655,1.308s-1.151.836-1.718,1.229c-.583.394-1.182.788-1.781,1.151s-1.229.725-1.844,1.056a1.048,1.048,0,0,0,.489,1.97,1.076,1.076,0,0,0,.489-.126c.646-.347,1.292-.725,1.938-1.1s1.261-.788,1.876-1.2,1.214-.851,1.812-1.292Z" transform="translate(-2609.062 -1642.878)" fill="#fff"/>
      <path id="Path_48287" data-name="Path 48287" d="M2633.03,1736.93h0c.568-.473,1.135-.961,1.687-1.45.536-.489,1.088-.993,1.624-1.513.52-.52,1.056-1.04,1.56-1.576s1.009-1.088,1.5-1.639h0q.734-.851,1.466-1.75c.473-.583.93-1.2,1.387-1.8s.9-1.245,1.309-1.86c.425-.63.835-1.276,1.229-1.923h0c.441-.709.851-1.434,1.261-2.159.394-.725.788-1.482,1.151-2.223.362-.757.725-1.513,1.056-2.286s.646-1.56.946-2.348c.552-1.466,1.04-2.979,1.466-4.477a1.038,1.038,0,0,0-2-.552c-.409,1.45-.883,2.9-1.4,4.3-.284.757-.583,1.513-.915,2.254-.315.741-.662,1.481-1.009,2.191s-.725,1.434-1.1,2.144c-.378.693-.788,1.4-1.214,2.081h0c-.378.615-.772,1.245-1.182,1.844s-.82,1.2-1.261,1.8c-.426.583-.883,1.166-1.34,1.734s-.931,1.135-1.4,1.671h0c-.473.536-.946,1.056-1.434,1.576s-.993,1.025-1.5,1.513-1.04.993-1.56,1.45c-.521.473-1.072.93-1.624,1.387h0c-.552.457-1.119.9-1.687,1.324s-1.151.851-1.734,1.261-1.2.8-1.8,1.182-1.214.757-1.844,1.1a1.038,1.038,0,1,0,1.04,1.8c.646-.378,1.292-.756,1.923-1.151.614-.394,1.245-.8,1.86-1.229s1.214-.867,1.813-1.308c.583-.441,1.182-.914,1.75-1.371Z" transform="translate(-2607.118 -1625.036)" fill="#fff"/>
      <path id="Path_48288" data-name="Path 48288" d="M2642.83,1714.34c.142-1.592.221-3.216.221-4.839v-.079a25.622,25.622,0,0,1,.41-4.54,25.216,25.216,0,0,1,1.2-4.271,25.676,25.676,0,0,1,1.891-3.925,27.467,27.467,0,0,1,2.522-3.515c.488-.567,1.009-1.119,1.544-1.639s1.1-1.025,1.671-1.5a21.467,21.467,0,0,1,1.812-1.34c.631-.426,1.277-.82,1.923-1.182h0c.6-.331,1.229-.646,1.844-.914a1.037,1.037,0,0,0-.851-1.891c-.678.3-1.356.646-2,.993h0c-.709.394-1.418.82-2.081,1.277s-1.324.946-1.955,1.45-1.229,1.056-1.812,1.623-1.135,1.167-1.671,1.781a27.178,27.178,0,0,0-2.742,3.814,28.624,28.624,0,0,0-2.065,4.256,26.743,26.743,0,0,0-1.734,9.473v.095c0,1.576-.079,3.168-.221,4.713a1.043,1.043,0,0,0,.946,1.135h.095a1.044,1.044,0,0,0,1.04-.946Z" transform="translate(-2597.559 -1638.867)" fill="#fff"/>
      <path id="Path_48289" data-name="Path 48289" d="M2625.22,1738.93c.583-.473,1.166-.961,1.718-1.466h0c.615-.567,1.229-1.151,1.8-1.75s1.135-1.229,1.671-1.876,1.056-1.308,1.545-1.986.961-1.387,1.4-2.1a34.573,34.573,0,0,0,2.3-4.334,35.841,35.841,0,0,0,2.758-9.568,36.309,36.309,0,0,0,.362-5.059v-.079a42.421,42.421,0,0,1,.284-4.9,43.015,43.015,0,0,1,.819-4.726,41.636,41.636,0,0,1,1.34-4.539,43.338,43.338,0,0,1,1.812-4.319h0c.347-.725.725-1.45,1.12-2.16s.819-1.4,1.245-2.08.883-1.355,1.356-2,.962-1.292,1.466-1.923a1.043,1.043,0,0,0-1.624-1.308c-.536.646-1.04,1.324-1.544,2.018-.489.678-.977,1.387-1.418,2.1-.457.709-.9,1.45-1.309,2.175-.41.741-.819,1.5-1.182,2.254h0a47.345,47.345,0,0,0-1.907,4.524,45.64,45.64,0,0,0-1.4,4.76,44.175,44.175,0,0,0-.867,4.965,49.288,49.288,0,0,0-.3,5.06v.079a33.96,33.96,0,0,1-5.138,17.953c-.409.662-.867,1.34-1.324,1.97s-.946,1.261-1.45,1.875-1.04,1.2-1.576,1.765-1.119,1.119-1.7,1.655h0c-.52.473-1.072.946-1.624,1.387s-1.119.867-1.7,1.277-1.182.8-1.781,1.182-1.229.725-1.86,1.056a1.044,1.044,0,0,0-.441,1.4,1.056,1.056,0,0,0,.914.552.946.946,0,0,0,.49-.126c.662-.347,1.34-.725,1.97-1.135.646-.394,1.277-.819,1.892-1.245.615-.442,1.229-.9,1.812-1.356Z" transform="translate(-2610.686 -1640.163)" fill="#fff"/>
      <path id="Path_48290" data-name="Path 48290" d="M2621.39,1738.47c.615-.52,1.229-1.072,1.813-1.639s1.135-1.166,1.655-1.781a29.563,29.563,0,0,0,2.727-3.83,28.909,28.909,0,0,0,2.049-4.287,26.792,26.792,0,0,0,1.277-4.65,27.675,27.675,0,0,0,.442-4.855v-.095c0-1.576.079-3.168.22-4.729.142-1.545.363-3.089.646-4.6s.63-2.995,1.04-4.476c.41-1.45.883-2.9,1.418-4.319.284-.757.6-1.513.914-2.254s.662-1.481,1.024-2.191.725-1.434,1.119-2.144c.394-.693.8-1.4,1.214-2.081h0c.378-.615.788-1.245,1.2-1.844s.835-1.2,1.277-1.781c.426-.583.883-1.166,1.34-1.734s.93-1.119,1.419-1.671h0c.473-.536.961-1.056,1.45-1.561s.993-1.009,1.513-1.5c.5-.489,1.04-.977,1.576-1.435.536-.473,1.088-.93,1.624-1.371h0c.552-.441,1.119-.883,1.687-1.308s1.151-.835,1.75-1.245c.583-.394,1.2-.788,1.8-1.166s1.23-.741,1.844-1.1a1.041,1.041,0,1,0-1.024-1.813c-.646.363-1.293.741-1.923,1.135s-1.261.8-1.876,1.214-1.229.851-1.812,1.292c-.6.441-1.182.9-1.766,1.371h0c-.568.457-1.135.946-1.687,1.434s-1.1.993-1.639,1.5-1.056,1.04-1.576,1.56c-.5.52-1.009,1.072-1.5,1.624h0c-.5.567-.993,1.151-1.466,1.734s-.946,1.2-1.4,1.8-.9,1.229-1.324,1.86-.836,1.277-1.245,1.923h0c-.442.709-.867,1.435-1.261,2.159-.41.725-.8,1.482-1.166,2.223-.378.756-.725,1.513-1.056,2.285s-.662,1.56-.961,2.333h0c-.552,1.466-1.056,2.979-1.482,4.492-.426,1.529-.788,3.089-1.087,4.65-.3,1.576-.521,3.2-.662,4.792s-.221,3.231-.221,4.839v.079a26.11,26.11,0,0,1-.409,4.571,25.618,25.618,0,0,1-1.182,4.3,24.663,24.663,0,0,1-1.891,3.956,24.147,24.147,0,0,1-2.522,3.546c-.489.567-.993,1.135-1.529,1.655s-1.088,1.04-1.671,1.513-1.182.93-1.8,1.356a21.767,21.767,0,0,1-1.923,1.2,1.046,1.046,0,0,0,.52,1.955.979.979,0,0,0,.5-.142c.709-.394,1.4-.836,2.081-1.292.662-.457,1.324-.961,1.954-1.466Z" transform="translate(-2611.903 -1646.783)" fill="#fff"/>
      <path id="Path_48291" data-name="Path 48291" d="M2619.08,1735.12a19.476,19.476,0,0,0,2.412-3.578,18.4,18.4,0,0,0,1.545-4.1,18.753,18.753,0,0,0,.535-4.492c0-1.434.048-2.9.158-4.319s.252-2.837.458-4.24c.2-1.387.457-2.774.756-4.145.3-1.356.646-2.711,1.025-4.035h0c.22-.757.457-1.513.709-2.254s.52-1.482.788-2.223c.283-.725.567-1.466.883-2.175.3-.709.631-1.434.962-2.128h0c.315-.646.631-1.308.977-1.955s.678-1.292,1.04-1.907c.362-.63.725-1.261,1.1-1.876s.773-1.229,1.167-1.829h0c.394-.583.8-1.182,1.214-1.75s.852-1.151,1.277-1.718c.442-.552.883-1.119,1.34-1.655s.93-1.088,1.4-1.608h0c.473-.536.962-1.056,1.466-1.576.489-.52,1.009-1.025,1.513-1.513s1.04-.993,1.576-1.466,1.072-.946,1.623-1.4h0q.852-.709,1.7-1.371c.567-.441,1.166-.883,1.749-1.308.6-.426,1.2-.851,1.8-1.245.6-.41,1.229-.8,1.844-1.182h0c.646-.394,1.292-.772,1.939-1.151.646-.362,1.324-.725,1.986-1.072q1.016-.52,2.033-.993c.677-.315,1.371-.63,2.08-.93h0c.725-.3,1.466-.6,2.191-.867.741-.284,1.482-.536,2.222-.788s1.513-.489,2.27-.693c.757-.221,1.545-.426,2.3-.615.8-.189,1.624-.378,2.443-.536s1.655-.315,2.475-.441q1.253-.189,2.506-.331c.835-.095,1.7-.173,2.538-.236h0c.346-.032.693-.047,1.056-.063l1.056-.047c.347,0,.709-.016,1.056-.032.914-.016,1.828,0,2.743,0,.552,0,1.1.032,1.671.079.552.032,1.1.063,1.655.11s1.1.095,1.655.157h.111a1.044,1.044,0,0,0,.126-2.08c-.568-.063-1.135-.126-1.7-.173s-1.151-.095-1.718-.126c-.583-.032-1.167-.063-1.734-.079-.946-.031-1.907-.031-2.853,0-.363,0-.725.016-1.1.031-.363,0-.725.031-1.087.047s-.725.047-1.088.063h0c-.867.063-1.75.142-2.632.237-.867.095-1.734.221-2.6.347-.851.126-1.718.284-2.553.457s-1.687.363-2.522.568c-.788.189-1.592.41-2.38.63s-1.576.473-2.348.725-1.545.536-2.3.82-1.513.583-2.27.9h0c-.725.3-1.434.631-2.144.961-.693.331-1.4.678-2.1,1.041s-1.387.725-2.065,1.119c-.678.378-1.356.772-2.018,1.182h0c-.646.394-1.292.8-1.907,1.229-.63.41-1.245.851-1.86,1.292s-1.214.9-1.813,1.356c-.583.457-1.182.93-1.765,1.418h0c-.568.473-1.135.962-1.671,1.45-.552.489-1.087,1.009-1.623,1.513s-1.056,1.04-1.561,1.576-1.024,1.072-1.513,1.623h0c-.489.552-.977,1.1-1.45,1.671s-.93,1.135-1.387,1.718-.9,1.182-1.324,1.765c-.426.6-.851,1.214-1.261,1.813h0c-.41.63-.82,1.261-1.214,1.891s-.772,1.277-1.151,1.939c-.363.646-.725,1.324-1.072,1.986s-.678,1.34-1.009,2.018h0c-.347.725-.678,1.466-.993,2.207s-.631,1.5-.914,2.254-.568,1.529-.82,2.3-.5,1.56-.74,2.333h0c-.41,1.371-.757,2.79-1.072,4.177-.315,1.419-.568,2.853-.773,4.287-.2,1.45-.362,2.916-.473,4.382-.11,1.482-.158,2.979-.158,4.476a16.079,16.079,0,0,1-.488,3.988,16.77,16.77,0,0,1-6.306,9.426,1.036,1.036,0,0,0-.22,1.45,1.024,1.024,0,0,0,.836.426,1,1,0,0,0,.614-.2,19.828,19.828,0,0,0,3.152-2.932Z" transform="translate(-2612.809 -1652.389)" fill="#fff"/>
      <path id="Path_48292" data-name="Path 48292" d="M2615.42,1726.14q0-1.8.095-3.594.094-1.773.283-3.546c.126-1.166.268-2.333.457-3.483s.394-2.3.63-3.436h0c.158-.741.315-1.466.5-2.191s.363-1.45.568-2.159.409-1.434.63-2.144.457-1.418.709-2.112h0c.236-.678.488-1.356.741-2.018s.536-1.34.8-1.986c.284-.662.568-1.308.867-1.954s.615-1.292.931-1.923h0c.315-.631.646-1.277.993-1.907s.693-1.261,1.056-1.875.725-1.229,1.1-1.828.772-1.214,1.166-1.8h0c.394-.6.82-1.2,1.23-1.781s.851-1.166,1.292-1.734.883-1.135,1.34-1.7.915-1.119,1.387-1.655h0c.473-.552.977-1.1,1.466-1.639s1.009-1.072,1.529-1.592,1.04-1.04,1.576-1.544,1.072-1.009,1.624-1.5h0q.85-.75,1.7-1.482c.568-.473,1.166-.961,1.75-1.418s1.2-.93,1.8-1.356c.615-.441,1.229-.883,1.844-1.308.646-.441,1.293-.867,1.954-1.277s1.324-.82,1.986-1.214,1.356-.772,2.033-1.151c.694-.363,1.387-.725,2.081-1.072h0c.725-.363,1.465-.709,2.191-1.04s1.481-.662,2.238-.962,1.513-.6,2.27-.883,1.545-.552,2.317-.8c.8-.268,1.623-.52,2.427-.757.819-.237,1.639-.457,2.475-.662s1.671-.394,2.506-.567,1.7-.331,2.538-.473c.883-.142,1.781-.284,2.68-.394s1.812-.2,2.711-.284q1.372-.118,2.743-.189c.914-.047,1.844-.063,2.774-.079h.441c.962,0,1.939.016,2.9.063s1.923.095,2.869.189c.946.079,1.891.173,2.838.3.93.126,1.875.252,2.8.41h0c1.1.189,2.206.41,3.294.646s2.175.5,3.247.8c1.056.284,2.128.615,3.184.946,1.041.331,2.081.709,3.121,1.1h0c1.214.457,2.427.961,3.625,1.5,1.182.52,2.364,1.1,3.514,1.686s2.286,1.231,3.405,1.892c1.1.662,2.207,1.355,3.279,2.065a.971.971,0,0,0,.583.174,1.041,1.041,0,0,0,.583-1.907c-1.1-.741-2.238-1.45-3.373-2.128q-1.726-1.017-3.5-1.939c-1.182-.615-2.411-1.2-3.625-1.75s-2.475-1.072-3.736-1.545h0c-1.056-.41-2.144-.788-3.216-1.135s-2.191-.678-3.279-.977-2.222-.583-3.342-.82c-1.119-.252-2.27-.473-3.4-.662h0q-1.443-.236-2.885-.426c-.977-.126-1.954-.221-2.932-.315-.977-.079-1.986-.142-2.963-.189-.993-.047-2-.063-2.994-.063h-.442c-.946,0-1.907.031-2.853.079s-1.892.11-2.822.189-1.875.173-2.79.3c-.93.11-1.86.252-2.759.41-.867.142-1.75.315-2.616.489s-1.734.378-2.584.583-1.7.441-2.554.678c-.835.237-1.687.5-2.506.772-.788.268-1.592.536-2.38.835s-1.576.6-2.348.914-1.544.646-2.3.993-1.513.693-2.254,1.072h0c-.709.347-1.434.725-2.144,1.1s-1.4.772-2.1,1.182c-.693.394-1.371.82-2.049,1.245s-1.356.867-2,1.308-1.277.883-1.907,1.339c-.614.458-1.245.93-1.86,1.4s-1.214.961-1.813,1.466c-.583.489-1.182,1.009-1.765,1.513h0c-.567.5-1.119,1.009-1.671,1.529s-1.087,1.056-1.623,1.592-1.056,1.088-1.561,1.639-1.024,1.119-1.513,1.687h0c-.489.552-.962,1.135-1.435,1.7s-.93,1.167-1.371,1.75-.9,1.182-1.324,1.8c-.425.6-.867,1.229-1.277,1.829h0c-.409.6-.8,1.229-1.2,1.844q-.591.946-1.135,1.891c-.362.631-.725,1.277-1.087,1.923-.346.646-.693,1.308-1.024,1.955h0c-.331.662-.646,1.324-.961,1.986s-.615,1.34-.9,2.018-.568,1.371-.835,2.049-.521,1.387-.773,2.081h0c-.252.725-.488,1.45-.725,2.175s-.458,1.466-.662,2.207-.409,1.481-.583,2.238c-.189.741-.347,1.5-.521,2.254h0c-.252,1.166-.457,2.364-.646,3.531-.189,1.182-.347,2.4-.473,3.594-.126,1.213-.22,2.427-.283,3.656s-.095,2.475-.095,3.7a1.039,1.039,0,0,0,1.04,1.04,1.05,1.05,0,0,0,1.041-1.04Z" transform="translate(-2613.34 -1655.59)" fill="#fff"/>
    </g>
    <circle id="Ellipse_1075" data-name="Ellipse 1075" cx="39.941" cy="39.941" r="39.941" transform="translate(2643.934 1686.342)" fill="url(#linear-gradient)"/>
    <path id="Path_48293" data-name="Path 48293" d="M2659.87,1726.28a4.469,4.469,0,0,1-3.042-1.182l-12.011-10.844a4.564,4.564,0,0,1,6.115-6.778l8.653,7.8,22.3-25.314a4.474,4.474,0,0,1,3.136-1.529h.3a4.608,4.608,0,0,1,3.01,1.135,4.476,4.476,0,0,1,1.529,3.137,4.552,4.552,0,0,1-1.135,3.31l-24.747,28.088a4.5,4.5,0,0,1-.63.6l-.031.031-.032.032h0a4.46,4.46,0,0,1-3.152,1.513h-.236Z" transform="translate(17.274 18.923)" fill="#c99d55"/>
  </g>
</svg>
